<?xml version="1.0" encoding="UTF-8"?>
<svg width="900" height="600" viewBox="0 0 900 600" fill="none" xmlns="http://www.w3.org/2000/svg">
  <path fill="#6366f1" d="M0 0h900v600H0z"/>
  <circle cx="450" cy="300" r="250" fill="#818cf8"/>
  <path fill="#c7d2fe" d="M450 50c-138.1 0-250 111.9-250 250s111.9 250 250 250 250-111.9 250-250S588.1 50 450 50Zm0 450c-110.5 0-200-89.5-200-200s89.5-200 200-200 200 89.5 200 200-89.5 200-200 200Z"/>
  <circle cx="450" cy="300" r="150" fill="#a5b4fc"/>
  <path d="M450 150c-82.8 0-150 67.2-150 150s67.2 150 150 150 150-67.2 150-150-67.2-150-150-150Zm0 250c-55.2 0-100-44.8-100-100s44.8-100 100-100 100 44.8 100 100-44.8 100-100 100Z" fill="#c7d2fe"/>
  <circle cx="450" cy="300" r="50" fill="#c7d2fe"/>
  <path d="M550 250c-27.6 0-50 22.4-50 50s22.4 50 50 50 50-22.4 50-50-22.4-50-50-50Z" fill="#818cf8"/>
  <path d="M350 250c-27.6 0-50 22.4-50 50s22.4 50 50 50 50-22.4 50-50-22.4-50-50-50Z" fill="#818cf8"/>
  <path d="M450 400c-27.6 0-50 22.4-50 50s22.4 50 50 50 50-22.4 50-50-22.4-50-50-50Z" fill="#818cf8"/>
  <path d="M450 100c-27.6 0-50 22.4-50 50s22.4 50 50 50 50-22.4 50-50-22.4-50-50-50Z" fill="#818cf8"/>
</svg> 