<?xml version="1.0" encoding="UTF-8"?>
<svg width="900" height="600" viewBox="0 0 900 600" fill="none" xmlns="http://www.w3.org/2000/svg">
  <path fill="#6366f1" d="M0 0h900v600H0z"/>
  <circle cx="450" cy="300" r="250" fill="#818cf8"/>
  <path fill="#c7d2fe" d="M651 401c17-27 24-66-10-97-35-31-54-78-54-78s-31 47-66 78c-34 31-27 70-10 97 26 41 140 41 140 0Z"/>
  <path d="M415.9 474.8c-15.7-39.8 18.4-79.7 18.4-79.7s34.2 39.9 18.5 79.7c-15.8 39.8-21 39.8-36.9 0Z" fill="#c7d2fe"/>
  <path fill="#c7d2fe" d="M494.7 492.6c-39.8-15.7-79.7 18.4-79.7 18.4s39.9 34.2 79.7 18.5c39.8-15.8 39.8-21 0-36.9Z"/>
  <circle cx="450" cy="300" r="200" fill="#a5b4fc"/>
  <path fill="#c7d2fe" d="M279 405c-17-27-24-66 10-97 35-31 54-78 54-78s31 47 66 78c34 31 27 70 10 97-26 41-140 41-140 0Z"/>
  <path d="M484.1 474.8c15.7-39.8-18.4-79.7-18.4-79.7s-34.2 39.9-18.5 79.7c15.8 39.8 21 39.8 36.9 0Z" fill="#c7d2fe"/>
  <path fill="#c7d2fe" d="M405.3 492.6c39.8-15.7 79.7 18.4 79.7 18.4s-39.9 34.2-79.7 18.5c-39.8-15.8-39.8-21 0-36.9Z"/>
  <circle cx="450" cy="300" r="150" fill="#818cf8"/>
  <path d="M450 150c-82.8 0-150 67.2-150 150s67.2 150 150 150 150-67.2 150-150-67.2-150-150-150Zm0 50c55.2 0 100 44.8 100 100s-44.8 100-100 100-100-44.8-100-100 44.8-100 100-100Z" fill="#c7d2fe"/>
  <circle cx="450" cy="300" r="50" fill="#c7d2fe"/>
</svg> 